<svg width="2104" height="1121" viewBox="0 0 2104 1121" fill="none" xmlns="http://www.w3.org/2000/svg">
<g opacity="0.5">
<mask id="mask0_929_26" style="mask-type:alpha" maskUnits="userSpaceOnUse" x="0" y="-1" width="2104" height="563">
<rect x="2104" y="561" width="2104" height="561" transform="rotate(180 2104 561)" fill="white"/>
<rect x="2104" y="561" width="2104" height="561" transform="rotate(180 2104 561)" fill="url(#paint0_linear_929_26)"/>
</mask>
<g mask="url(#mask0_929_26)">
<g filter="url(#filter0_f_929_26)">
<path d="M622.14 791.126C423.946 845.318 286.62 969.563 229.227 772.072C171.833 574.58 285.974 370.551 484.168 316.36C682.362 262.168 483.323 403.823 976.348 567.789C1033.74 765.281 820.334 736.935 622.14 791.126Z" fill="#4140FE"/>
</g>
</g>
<g opacity="0.7">
<mask id="mask1_929_26" style="mask-type:alpha" maskUnits="userSpaceOnUse" x="214" y="126" width="1793" height="435">
<rect x="214" y="126.005" width="1793" height="434" fill="white"/>
<rect x="214" y="126.005" width="1793" height="434" fill="url(#paint1_linear_929_26)"/>
</mask>
<g mask="url(#mask1_929_26)">
<g filter="url(#filter1_f_929_26)">
<path d="M897.233 554.216C1093.86 447.981 1195.96 268.983 1336.87 497.368C1477.78 725.754 1432.6 997.016 1235.97 1103.25C1039.34 1209.48 1202.45 996.756 595.638 897.834C454.73 669.449 700.601 660.45 897.233 554.216Z" fill="#6202EE"/>
</g>
<g filter="url(#filter2_f_929_26)">
<path d="M1577.61 1381.28C1341.35 1381.28 1486.67 563.613 980.757 583.179C1439.28 694.864 1123.61 628.831 1359.87 628.831C1596.13 628.831 1836.33 432.351 1836.33 583.179C1836.33 734.007 1813.87 1381.28 1577.61 1381.28Z" fill="#F87067"/>
</g>
<g filter="url(#filter3_f_929_26)">
<ellipse cx="1372.87" cy="987.85" rx="385.104" ry="442.603" fill="#FF007F"/>
</g>
</g>
</g>
</g>
<g opacity="0.5">
<mask id="mask2_929_26" style="mask-type:alpha" maskUnits="userSpaceOnUse" x="0" y="560" width="2104" height="562">
<rect width="2104" height="560" transform="matrix(-1 -8.90917e-08 -8.57851e-08 1 2104 561)" fill="white"/>
<rect width="2104" height="560" transform="matrix(-1 -8.90917e-08 -8.57851e-08 1 2104 561)" fill="url(#paint2_linear_929_26)"/>
</mask>
<g mask="url(#mask2_929_26)">
<g filter="url(#filter4_f_929_26)">
<path d="M622.14 329.886C423.946 275.694 286.62 151.448 229.227 348.94C171.834 546.432 285.974 750.461 484.168 804.652C682.362 858.844 483.323 717.188 976.348 553.223C1033.74 355.731 820.334 384.077 622.14 329.886Z" fill="#4140FE"/>
</g>
</g>
<g opacity="0.7">
<mask id="mask3_929_26" style="mask-type:alpha" maskUnits="userSpaceOnUse" x="214" y="560" width="1793" height="436">
<rect width="1793" height="435" transform="matrix(1 0 0 -1 214 995.005)" fill="white"/>
<rect width="1793" height="435" transform="matrix(1 0 0 -1 214 995.005)" fill="url(#paint3_linear_929_26)"/>
</mask>
<g mask="url(#mask3_929_26)">
<g filter="url(#filter5_f_929_26)">
<path d="M897.233 566.794C1093.86 673.029 1195.96 852.027 1336.87 623.642C1477.78 395.256 1432.6 123.994 1235.97 17.7592C1039.34 -88.4752 1202.45 124.253 595.638 223.176C454.73 451.561 700.602 460.56 897.233 566.794Z" fill="#6202EE"/>
</g>
<g filter="url(#filter6_f_929_26)">
<path d="M1577.61 -260.268C1341.35 -260.268 1486.67 557.396 980.758 537.831C1439.28 426.146 1123.61 492.179 1359.87 492.179C1596.13 492.179 1836.33 688.659 1836.33 537.831C1836.33 387.003 1813.87 -260.268 1577.61 -260.268Z" fill="#F87067"/>
</g>
<g filter="url(#filter7_f_929_26)">
<ellipse rx="385.104" ry="442.603" transform="matrix(1 0 0 -1 1372.87 133.159)" fill="#FF007F"/>
</g>
</g>
</g>
</g>
<defs>
<filter id="filter0_f_929_26" x="14.386" y="104.605" width="1171.46" height="975.133" filterUnits="userSpaceOnUse" color-interpolation-filters="sRGB">
<feFlood flood-opacity="0" result="BackgroundImageFix"/>
<feBlend mode="normal" in="SourceGraphic" in2="BackgroundImageFix" result="shape"/>
<feGaussianBlur stdDeviation="100" result="effect1_foregroundBlur_929_26"/>
</filter>
<filter id="filter1_f_929_26" x="353.985" y="186.678" width="1264.9" height="1145.55" filterUnits="userSpaceOnUse" color-interpolation-filters="sRGB">
<feFlood flood-opacity="0" result="BackgroundImageFix"/>
<feBlend mode="normal" in="SourceGraphic" in2="BackgroundImageFix" result="shape"/>
<feGaussianBlur stdDeviation="100" result="effect1_foregroundBlur_929_26"/>
</filter>
<filter id="filter2_f_929_26" x="780.757" y="326.229" width="1255.57" height="1255.05" filterUnits="userSpaceOnUse" color-interpolation-filters="sRGB">
<feFlood flood-opacity="0" result="BackgroundImageFix"/>
<feBlend mode="normal" in="SourceGraphic" in2="BackgroundImageFix" result="shape"/>
<feGaussianBlur stdDeviation="100" result="effect1_foregroundBlur_929_26"/>
</filter>
<filter id="filter3_f_929_26" x="787.764" y="345.248" width="1170.21" height="1285.21" filterUnits="userSpaceOnUse" color-interpolation-filters="sRGB">
<feFlood flood-opacity="0" result="BackgroundImageFix"/>
<feBlend mode="normal" in="SourceGraphic" in2="BackgroundImageFix" result="shape"/>
<feGaussianBlur stdDeviation="100" result="effect1_foregroundBlur_929_26"/>
</filter>
<filter id="filter4_f_929_26" x="14.3862" y="41.2737" width="1171.46" height="975.133" filterUnits="userSpaceOnUse" color-interpolation-filters="sRGB">
<feFlood flood-opacity="0" result="BackgroundImageFix"/>
<feBlend mode="normal" in="SourceGraphic" in2="BackgroundImageFix" result="shape"/>
<feGaussianBlur stdDeviation="100" result="effect1_foregroundBlur_929_26"/>
</filter>
<filter id="filter5_f_929_26" x="353.985" y="-211.22" width="1264.9" height="1145.55" filterUnits="userSpaceOnUse" color-interpolation-filters="sRGB">
<feFlood flood-opacity="0" result="BackgroundImageFix"/>
<feBlend mode="normal" in="SourceGraphic" in2="BackgroundImageFix" result="shape"/>
<feGaussianBlur stdDeviation="100" result="effect1_foregroundBlur_929_26"/>
</filter>
<filter id="filter6_f_929_26" x="780.758" y="-460.269" width="1255.57" height="1255.05" filterUnits="userSpaceOnUse" color-interpolation-filters="sRGB">
<feFlood flood-opacity="0" result="BackgroundImageFix"/>
<feBlend mode="normal" in="SourceGraphic" in2="BackgroundImageFix" result="shape"/>
<feGaussianBlur stdDeviation="100" result="effect1_foregroundBlur_929_26"/>
</filter>
<filter id="filter7_f_929_26" x="787.764" y="-509.444" width="1170.21" height="1285.21" filterUnits="userSpaceOnUse" color-interpolation-filters="sRGB">
<feFlood flood-opacity="0" result="BackgroundImageFix"/>
<feBlend mode="normal" in="SourceGraphic" in2="BackgroundImageFix" result="shape"/>
<feGaussianBlur stdDeviation="100" result="effect1_foregroundBlur_929_26"/>
</filter>
<linearGradient id="paint0_linear_929_26" x1="2140.82" y1="580.991" x2="3314.01" y2="1900.57" gradientUnits="userSpaceOnUse">
<stop stop-color="#8F94FB"/>
<stop offset="1" stop-color="#4E54C8"/>
</linearGradient>
<linearGradient id="paint1_linear_929_26" x1="245.377" y1="141.471" x2="1138.67" y2="1248.27" gradientUnits="userSpaceOnUse">
<stop stop-color="#8F94FB"/>
<stop offset="1" stop-color="#4E54C8"/>
</linearGradient>
<linearGradient id="paint2_linear_929_26" x1="36.82" y1="19.9555" x2="1207.68" y2="1339.26" gradientUnits="userSpaceOnUse">
<stop stop-color="#8F94FB"/>
<stop offset="1" stop-color="#4E54C8"/>
</linearGradient>
<linearGradient id="paint3_linear_929_26" x1="31.3775" y1="15.5011" x2="927.162" y2="1122.83" gradientUnits="userSpaceOnUse">
<stop stop-color="#8F94FB"/>
<stop offset="1" stop-color="#4E54C8"/>
</linearGradient>
</defs>
</svg>
