<svg width="1440" height="1122" viewBox="0 0 1440 1122" fill="none" xmlns="http://www.w3.org/2000/svg">
<g opacity="0.5">
<mask id="mask0_575_312" style="mask-type:alpha" maskUnits="userSpaceOnUse" x="0" y="0" width="1460" height="561">
<rect x="1459.38" y="560.5" width="1459.38" height="560.5" transform="rotate(180 1459.38 560.5)" fill="white"/>
<rect x="1459.38" y="560.5" width="1459.38" height="560.5" transform="rotate(180 1459.38 560.5)" fill="url(#paint0_linear_575_312)"/>
</mask>
<g mask="url(#mask0_575_312)">
<g filter="url(#filter0_f_575_312)">
<path d="M235.14 791.121C36.9464 845.312 -100.38 969.558 -157.773 772.066C-215.167 574.575 -101.026 370.546 97.1679 316.354C295.362 262.163 96.3228 403.818 589.348 567.784C646.741 765.275 433.334 736.929 235.14 791.121Z" fill="#4140FE"/>
</g>
</g>
<g opacity="0.7">
<mask id="mask1_575_312" style="mask-type:alpha" maskUnits="userSpaceOnUse" x="0" y="126" width="1447" height="435">
<rect x="-3.05176e-05" y="126.367" width="1446.58" height="434.132" fill="white"/>
<rect x="-3.05176e-05" y="126.367" width="1446.58" height="434.132" fill="url(#paint1_linear_575_312)"/>
</mask>
<g mask="url(#mask1_575_312)">
<g filter="url(#filter1_f_575_312)">
<path d="M510.233 554.21C706.864 447.976 808.96 268.978 949.868 497.363C1090.78 725.748 1045.6 997.011 848.973 1103.24C652.341 1209.48 815.453 996.751 208.638 897.829C67.7298 669.444 313.601 660.445 510.233 554.21Z" fill="#6202EE"/>
</g>
<g filter="url(#filter2_f_575_312)">
<path d="M1190.61 1381.27C954.348 1381.27 1099.67 563.608 593.757 583.174C1052.28 694.858 736.613 628.826 972.872 628.826C1209.13 628.826 1449.33 432.346 1449.33 583.174C1449.33 734.002 1426.87 1381.27 1190.61 1381.27Z" fill="#F87067"/>
</g>
<g filter="url(#filter3_f_575_312)">
<ellipse cx="985.867" cy="987.845" rx="385.104" ry="442.603" fill="#FF007F"/>
</g>
</g>
</g>
</g>
<g opacity="0.5">
<mask id="mask2_575_312" style="mask-type:alpha" maskUnits="userSpaceOnUse" x="0" y="560" width="1460" height="562">
<rect width="1459.38" height="560.5" transform="matrix(-1 -8.90917e-08 -8.57851e-08 1 1459.38 560.502)" fill="white"/>
<rect width="1459.38" height="560.5" transform="matrix(-1 -8.90917e-08 -8.57851e-08 1 1459.38 560.502)" fill="url(#paint2_linear_575_312)"/>
</mask>
<g mask="url(#mask2_575_312)">
<g filter="url(#filter4_f_575_312)">
<path d="M235.14 329.881C36.9464 275.689 -100.38 151.444 -157.773 348.935C-215.167 546.427 -101.026 750.456 97.1679 804.647C295.362 858.839 96.3228 717.184 589.348 553.218C646.741 355.726 433.334 384.072 235.14 329.881Z" fill="#4140FE"/>
</g>
</g>
<g opacity="0.7">
<mask id="mask3_575_312" style="mask-type:alpha" maskUnits="userSpaceOnUse" x="0" y="560" width="1447" height="435">
<rect width="1446.58" height="434.133" transform="matrix(1 0 0 -1 0.000213623 994.632)" fill="white"/>
<rect width="1446.58" height="434.133" transform="matrix(1 0 0 -1 0.000213623 994.632)" fill="url(#paint3_linear_575_312)"/>
</mask>
<g mask="url(#mask3_575_312)">
<g filter="url(#filter5_f_575_312)">
<path d="M510.233 566.789C706.864 673.024 808.96 852.022 949.868 623.637C1090.78 395.251 1045.6 123.989 848.973 17.7544C652.342 -88.4801 815.453 124.248 208.638 223.171C67.7299 451.556 313.601 460.555 510.233 566.789Z" fill="#6202EE"/>
</g>
<g filter="url(#filter6_f_575_312)">
<path d="M1190.61 -260.274C954.348 -260.274 1099.67 557.391 593.758 537.826C1052.28 426.141 736.613 492.174 972.873 492.174C1209.13 492.174 1449.33 688.654 1449.33 537.826C1449.33 386.998 1426.87 -260.274 1190.61 -260.274Z" fill="#F87067"/>
</g>
<g filter="url(#filter7_f_575_312)">
<ellipse rx="385.104" ry="442.603" transform="matrix(1 0 0 -1 985.868 133.154)" fill="#FF007F"/>
</g>
</g>
</g>
</g>
<defs>
<filter id="filter0_f_575_312" x="-372.614" y="104.6" width="1171.46" height="975.133" filterUnits="userSpaceOnUse" color-interpolation-filters="sRGB">
<feFlood flood-opacity="0" result="BackgroundImageFix"/>
<feBlend mode="normal" in="SourceGraphic" in2="BackgroundImageFix" result="shape"/>
<feGaussianBlur stdDeviation="100" result="effect1_foregroundBlur_575_312"/>
</filter>
<filter id="filter1_f_575_312" x="-33.015" y="186.673" width="1264.9" height="1145.55" filterUnits="userSpaceOnUse" color-interpolation-filters="sRGB">
<feFlood flood-opacity="0" result="BackgroundImageFix"/>
<feBlend mode="normal" in="SourceGraphic" in2="BackgroundImageFix" result="shape"/>
<feGaussianBlur stdDeviation="100" result="effect1_foregroundBlur_575_312"/>
</filter>
<filter id="filter2_f_575_312" x="393.757" y="326.224" width="1255.57" height="1255.05" filterUnits="userSpaceOnUse" color-interpolation-filters="sRGB">
<feFlood flood-opacity="0" result="BackgroundImageFix"/>
<feBlend mode="normal" in="SourceGraphic" in2="BackgroundImageFix" result="shape"/>
<feGaussianBlur stdDeviation="100" result="effect1_foregroundBlur_575_312"/>
</filter>
<filter id="filter3_f_575_312" x="400.764" y="345.242" width="1170.21" height="1285.21" filterUnits="userSpaceOnUse" color-interpolation-filters="sRGB">
<feFlood flood-opacity="0" result="BackgroundImageFix"/>
<feBlend mode="normal" in="SourceGraphic" in2="BackgroundImageFix" result="shape"/>
<feGaussianBlur stdDeviation="100" result="effect1_foregroundBlur_575_312"/>
</filter>
<filter id="filter4_f_575_312" x="-372.614" y="41.2688" width="1171.46" height="975.133" filterUnits="userSpaceOnUse" color-interpolation-filters="sRGB">
<feFlood flood-opacity="0" result="BackgroundImageFix"/>
<feBlend mode="normal" in="SourceGraphic" in2="BackgroundImageFix" result="shape"/>
<feGaussianBlur stdDeviation="100" result="effect1_foregroundBlur_575_312"/>
</filter>
<filter id="filter5_f_575_312" x="-33.0148" y="-211.225" width="1264.9" height="1145.55" filterUnits="userSpaceOnUse" color-interpolation-filters="sRGB">
<feFlood flood-opacity="0" result="BackgroundImageFix"/>
<feBlend mode="normal" in="SourceGraphic" in2="BackgroundImageFix" result="shape"/>
<feGaussianBlur stdDeviation="100" result="effect1_foregroundBlur_575_312"/>
</filter>
<filter id="filter6_f_575_312" x="393.758" y="-460.274" width="1255.57" height="1255.05" filterUnits="userSpaceOnUse" color-interpolation-filters="sRGB">
<feFlood flood-opacity="0" result="BackgroundImageFix"/>
<feBlend mode="normal" in="SourceGraphic" in2="BackgroundImageFix" result="shape"/>
<feGaussianBlur stdDeviation="100" result="effect1_foregroundBlur_575_312"/>
</filter>
<filter id="filter7_f_575_312" x="400.764" y="-509.449" width="1170.21" height="1285.21" filterUnits="userSpaceOnUse" color-interpolation-filters="sRGB">
<feFlood flood-opacity="0" result="BackgroundImageFix"/>
<feBlend mode="normal" in="SourceGraphic" in2="BackgroundImageFix" result="shape"/>
<feGaussianBlur stdDeviation="100" result="effect1_foregroundBlur_575_312"/>
</filter>
<linearGradient id="paint0_linear_575_312" x1="1484.92" y1="580.474" x2="2629.98" y2="1474.61" gradientUnits="userSpaceOnUse">
<stop stop-color="#8F94FB"/>
<stop offset="1" stop-color="#4E54C8"/>
</linearGradient>
<linearGradient id="paint1_linear_575_312" x1="25.315" y1="141.837" x2="939.479" y2="1055.37" gradientUnits="userSpaceOnUse">
<stop stop-color="#8F94FB"/>
<stop offset="1" stop-color="#4E54C8"/>
</linearGradient>
<linearGradient id="paint2_linear_575_312" x1="25.5392" y1="19.9733" x2="1170.59" y2="914.107" gradientUnits="userSpaceOnUse">
<stop stop-color="#8F94FB"/>
<stop offset="1" stop-color="#4E54C8"/>
</linearGradient>
<linearGradient id="paint3_linear_575_312" x1="25.3151" y1="15.4702" x2="939.48" y2="929.007" gradientUnits="userSpaceOnUse">
<stop stop-color="#8F94FB"/>
<stop offset="1" stop-color="#4E54C8"/>
</linearGradient>
</defs>
</svg>
