<svg width="48" height="52" viewBox="0 0 48 52" fill="none" xmlns="http://www.w3.org/2000/svg">
<g clip-path="url(#clip0_736_20)">
<path d="M14.4038 51.4131H11.755L9.71623 45.9158L7.76465 51.4131H5.16633L0.899384 39.9322H4.42738L5.91159 43.9453C6.18949 44.8333 6.33096 45.768 6.51286 46.6055L8.61475 39.9322H10.843L13.0244 46.6055C13.2101 45.7213 13.3945 44.8333 13.6724 43.8518L15.0632 39.8855H18.5912L14.4038 51.4131Z" fill="white"/>
<path d="M34.1129 43.1584C33.3351 42.5897 32.3842 42.3084 31.4223 42.3626C30.6316 42.3626 29.8914 42.5963 29.8914 43.2089C29.8914 43.9996 30.6783 44.0931 31.7924 44.232C34.0661 44.4695 36.4168 45.3992 36.4168 48.0594C36.4168 50.7196 33.9575 51.7984 31.4059 51.7984C29.3621 51.7984 27.8779 51.4687 26.3015 49.7899L28.0636 47.7335C28.5002 48.1705 29.0226 48.5122 29.5978 48.7372C30.1731 48.9622 30.7887 49.0656 31.4059 49.0409C32.4733 49.0409 33.2122 48.6683 33.2122 48.0127C33.2122 47.4544 32.5655 47.083 31.3124 46.9895C28.7899 46.7533 26.6893 46.1015 26.6893 43.2556C26.6893 40.8278 29.0552 39.7542 31.4691 39.7542C33.1844 39.7542 34.5297 40.1268 35.736 41.1083L34.1129 43.1584Z" fill="white"/>
<path d="M47.6173 51.4636H38.4758V39.9954H47.3836V42.7023H41.6741V44.3343H47.0602V46.9983H41.6741V48.7238H47.6147V51.4648L47.6173 51.4636Z" fill="white"/>
<path d="M22.9339 39.6746L18.5027 44.2624V44.664H20.0792V51.4169H22.9339V39.6758V39.6746Z" fill="white"/>
<path d="M23.4467 39.6746L24.696 41.5567V51.4169H23.4467V39.6758V39.6746Z" fill="white"/>
<path d="M14.4038 51.4131H11.755L9.71623 45.9158L7.76465 51.4131H5.16633L0.899384 39.9322H4.42738L5.91159 43.9453C6.18949 44.8333 6.33096 45.768 6.51286 46.6055L8.61475 39.9322H10.843L13.0244 46.6055C13.2101 45.7213 13.3945 44.8333 13.6724 43.8518L15.0632 39.8855H18.5912L14.4038 51.4131Z" fill="white"/>
<path d="M34.1129 43.1584C33.3351 42.5897 32.3842 42.3084 31.4223 42.3626C30.6316 42.3626 29.8914 42.5963 29.8914 43.2089C29.8914 43.9996 30.6783 44.0931 31.7924 44.232C34.0661 44.4695 36.4168 45.3992 36.4168 48.0594C36.4168 50.7196 33.9575 51.7984 31.4059 51.7984C29.3621 51.7984 27.8779 51.4687 26.3015 49.7899L28.0636 47.7335C28.5002 48.1705 29.0226 48.5122 29.5978 48.7372C30.1731 48.9622 30.7887 49.0656 31.4059 49.0409C32.4733 49.0409 33.2122 48.6683 33.2122 48.0127C33.2122 47.4544 32.5655 47.083 31.3124 46.9895C28.7899 46.7533 26.6893 46.1015 26.6893 43.2556C26.6893 40.8278 29.0552 39.7542 31.4691 39.7542C33.1844 39.7542 34.5297 40.1268 35.736 41.1083L34.1129 43.1584Z" fill="white"/>
<path d="M47.6173 51.4636H38.4758V39.9954H47.3836V42.7023H41.6741V44.3343H47.0602V46.9983H41.6741V48.7238H47.6147V51.4648L47.6173 51.4636Z" fill="white"/>
<path d="M22.9339 39.6746L18.5027 44.2624V44.664H20.0792V51.4169H22.9339V39.6758V39.6746Z" fill="white"/>
<path d="M23.4467 39.6746L24.696 41.5567V51.4169H23.4467V39.6758V39.6746Z" fill="white"/>
<path d="M14.4038 51.4131H11.755L9.71623 45.9158L7.76465 51.4131H5.16633L0.899384 39.9322H4.42738L5.91159 43.9453C6.18949 44.8333 6.33096 45.768 6.51286 46.6055L8.61475 39.9322H10.843L13.0244 46.6055C13.2101 45.7213 13.3945 44.8333 13.6724 43.8518L15.0632 39.8855H18.5912L14.4038 51.4131Z" fill="white"/>
<path d="M34.1129 43.1584C33.3351 42.5897 32.3842 42.3084 31.4223 42.3626C30.6316 42.3626 29.8914 42.5963 29.8914 43.2089C29.8914 43.9996 30.6783 44.0931 31.7924 44.232C34.0661 44.4695 36.4168 45.3992 36.4168 48.0594C36.4168 50.7196 33.9575 51.7984 31.4059 51.7984C29.3621 51.7984 27.8779 51.4687 26.3015 49.7899L28.0636 47.7335C28.5002 48.1705 29.0226 48.5122 29.5978 48.7372C30.1731 48.9622 30.7887 49.0656 31.4059 49.0409C32.4733 49.0409 33.2122 48.6683 33.2122 48.0127C33.2122 47.4544 32.5655 47.083 31.3124 46.9895C28.7899 46.7533 26.6893 46.1015 26.6893 43.2556C26.6893 40.8278 29.0552 39.7542 31.4691 39.7542C33.1844 39.7542 34.5297 40.1268 35.736 41.1083L34.1129 43.1584Z" fill="white"/>
<path d="M47.6173 51.4636H38.4758V39.9954H47.3836V42.7023H41.6741V44.3343H47.0602V46.9983H41.6741V48.7238H47.6147V51.4648L47.6173 51.4636Z" fill="white"/>
<path d="M22.9339 39.6746L18.5027 44.2624V44.664H20.0792V51.4169H22.9339V39.6758V39.6746Z" fill="white"/>
<path d="M23.4467 39.6746L24.696 41.5567V51.4169H23.4467V39.6758V39.6746Z" fill="white"/>
<path d="M27.7604 26.3167C27.296 27.159 27.1835 28.1507 27.4473 29.0757C27.7112 30.0006 28.33 30.7838 29.1688 31.2543C29.5838 31.4855 30.0404 31.6323 30.5123 31.6862C30.9842 31.7402 31.4622 31.7002 31.9186 31.5685C32.375 31.4369 32.8008 31.2163 33.1716 30.9193C33.5423 30.6224 33.8506 30.255 34.0787 29.8383L47.5491 5.39497C48.0144 4.55272 48.1278 3.56059 47.8644 2.63507C47.601 1.70955 46.9823 0.925773 46.1432 0.454755C45.7282 0.223563 45.2716 0.0767744 44.7997 0.0228479C44.3277 -0.0310786 43.8498 0.00892344 43.3934 0.140549C42.937 0.272174 42.5112 0.49282 42.1404 0.789772C41.7697 1.08672 41.4614 1.45411 41.2333 1.87076L27.7604 26.3167Z" fill="url(#paint0_linear_736_20)"/>
<path d="M20.6059 1.87077C20.3777 1.4544 20.0693 1.08728 19.6986 0.79057C19.328 0.493855 18.9022 0.273403 18.446 0.141906C17.9897 0.0104096 17.512 -0.0295325 17.0402 0.0243799C16.5685 0.0782922 16.1121 0.224994 15.6973 0.456037C14.8584 0.926619 14.2396 1.70976 13.9758 2.63471C13.7119 3.55966 13.8245 4.5514 14.2888 5.39372L27.7604 29.8358C27.9884 30.2524 28.2966 30.6198 28.6672 30.9167C29.0378 31.2137 29.4635 31.4344 29.9197 31.5662C30.376 31.6979 30.8538 31.7381 31.3257 31.6843C31.7975 31.6306 32.2541 31.484 32.669 31.2531C33.5082 30.7825 34.1273 29.9991 34.3911 29.0739C34.655 28.1486 34.5422 27.1566 34.0775 26.3141L20.6059 1.87204V1.87077Z" fill="url(#paint1_linear_736_20)"/>
<path d="M13.9213 26.3179C13.4565 27.1603 13.3437 28.1524 13.6076 29.0776C13.8714 30.0029 14.4905 30.7863 15.3297 31.2568C15.7447 31.488 16.2014 31.6347 16.6734 31.6885C17.1453 31.7424 17.6233 31.7023 18.0797 31.5705C18.5361 31.4388 18.962 31.218 19.3327 30.9209C19.7033 30.6238 20.0116 30.2563 20.2396 29.8396L33.7099 5.39748C34.1751 4.55526 34.2882 3.56321 34.0246 2.63788C33.761 1.71255 33.142 0.92909 32.3027 0.458529C31.8879 0.227288 31.4313 0.0804275 30.9595 0.0264099C30.4876 -0.0276076 30.0097 0.0122856 29.5533 0.143791C29.0969 0.275296 28.671 0.495814 28.3002 0.792638C27.9294 1.08946 27.6211 1.45673 27.3928 1.87327L13.92 26.3192L13.9213 26.3179Z" fill="url(#paint2_linear_736_20)"/>
<path d="M6.768 1.87327C6.53979 1.45673 6.2314 1.08946 5.86061 0.792638C5.48982 0.495814 5.06396 0.275296 4.60757 0.143791C4.15117 0.0122856 3.67327 -0.0276076 3.20139 0.0264099C2.72951 0.0804275 2.27298 0.227288 1.85811 0.458529C1.0198 0.92932 0.401506 1.71232 0.137935 2.63695C-0.125636 3.56158 -0.0131267 4.55291 0.450952 5.39495L13.9213 29.8371C14.1493 30.2538 14.4575 30.6213 14.8282 30.9184C15.1989 31.2155 15.6247 31.4363 16.0811 31.568C16.5375 31.6997 17.0155 31.7399 17.4875 31.686C17.9595 31.6322 18.4161 31.4855 18.8312 31.2543C19.6704 30.7837 20.2894 30.0004 20.5533 29.0751C20.8171 28.1499 20.7044 27.1578 20.2396 26.3154L6.768 1.87453V1.87327Z" fill="url(#paint3_linear_736_20)"/>
<g opacity="0.45">
<path opacity="0.45" d="M34.1128 29.7752L34.0787 29.8383C34.037 29.9141 33.9903 29.9861 33.9486 30.0581L33.8779 30.1592L33.8059 30.2653L33.7301 30.3625L33.6758 30.4257C33.5545 30.5697 33.4232 30.7036 33.2804 30.8274L33.1882 30.9032L33.0783 30.9878L32.9899 31.051L32.8888 31.1242C32.669 31.2657 32.4341 31.3844 32.1916 31.4779L32.0779 31.5158L31.968 31.555L31.8543 31.5891L31.7368 31.6143L31.6232 31.6396C31.502 31.6639 31.3798 31.682 31.2568 31.6939H30.581C30.4578 31.6842 30.3355 31.666 30.2147 31.6396L30.101 31.6143L29.9836 31.5891L29.8699 31.555C29.6643 31.4911 29.4648 31.4091 29.2737 31.3099L29.1688 31.2543L28.9503 31.1242L28.8493 31.0522L28.7444 30.9802L28.6472 30.9044L28.5587 30.8286C28.4247 30.7124 28.2997 30.5862 28.1848 30.451L28.109 30.3625L28.0333 30.2653L27.9625 30.1592L27.8905 30.0581C27.5318 29.5046 27.3302 28.864 27.3073 28.2048C27.2844 27.5455 27.441 26.8925 27.7604 26.3154L30.9183 20.5857L34.0787 26.3154C34.3711 26.8439 34.5273 27.437 34.5333 28.041C34.5392 28.645 34.3947 29.2409 34.1128 29.7752Z" fill="url(#paint4_linear_736_20)"/>
<path opacity="0.45" d="M20.2686 29.7916L20.2383 29.8383C20.1998 29.9144 20.1564 29.9878 20.1082 30.0581L20.0413 30.1592C20.0214 30.192 19.999 30.2232 19.9743 30.2526C19.9491 30.2905 19.9187 30.3246 19.8897 30.3625L19.8177 30.4509C19.7507 30.5267 19.6876 30.5987 19.6156 30.6657L19.536 30.7427L19.4438 30.8274L19.3516 30.9032L19.2543 30.9789L19.1533 31.0522C19.0513 31.1266 18.9446 31.1941 18.8337 31.2543L18.7288 31.3099C18.5368 31.4109 18.336 31.4931 18.1276 31.5549L18.0139 31.589L17.9002 31.6143L17.784 31.6396C17.663 31.6645 17.5407 31.6826 17.4177 31.6939H16.7444C16.6212 31.684 16.4989 31.6659 16.3781 31.6396L16.2619 31.6143L16.1482 31.589L16.0345 31.5549L15.9208 31.5171L15.8122 31.4792C15.6475 31.4148 15.4871 31.3397 15.3322 31.2543L15.1137 31.1229L15.0088 31.0522L14.9204 30.9891L14.8105 30.9032L14.7183 30.8274C14.5773 30.7041 14.4464 30.5698 14.3267 30.4257L14.2724 30.3625L14.1966 30.2653L14.1208 30.1592L14.0539 30.0581C13.9907 29.9646 13.9402 29.8712 13.8859 29.7752C13.6059 29.2402 13.4628 28.6442 13.4694 28.0405C13.476 27.4367 13.6321 26.844 13.9238 26.3154L17.0766 20.5806L20.2345 26.3154C20.5277 26.8466 20.6843 27.4424 20.6902 28.0492C20.6962 28.6559 20.5513 29.2547 20.2686 29.7916Z" fill="url(#paint5_linear_736_20)"/>
<path opacity="0.45" d="M28.1305 15.5242L24 23.0122L19.872 15.5242L24 8.02991L28.1293 15.5242H28.1305Z" fill="url(#paint6_linear_736_20)"/>
</g>
</g>
<defs>
<linearGradient id="paint0_linear_736_20" x1="28.9036" y1="31.1015" x2="46.5587" y2="0.697282" gradientUnits="userSpaceOnUse">
<stop stop-color="#42B1ED"/>
<stop offset="0.29" stop-color="#57A6F2"/>
<stop offset="0.4" stop-color="#4EB3EE"/>
<stop offset="0.61" stop-color="#3FC6E7"/>
<stop offset="1" stop-color="#13F0D6"/>
</linearGradient>
<linearGradient id="paint1_linear_736_20" x1="32.9368" y1="31.099" x2="15.2817" y2="0.694775" gradientUnits="userSpaceOnUse">
<stop stop-color="#00A0FF"/>
<stop offset="0.39" stop-color="#844DB3"/>
<stop offset="0.45" stop-color="#973FA7"/>
<stop offset="0.57" stop-color="#CA1C88"/>
<stop offset="0.58" stop-color="#CF1885"/>
<stop offset="1" stop-color="#E90074"/>
</linearGradient>
<linearGradient id="paint2_linear_736_20" x1="2730.38" y1="6722.83" x2="3798.43" y2="6343.35" gradientUnits="userSpaceOnUse">
<stop stop-color="#42B1ED"/>
<stop offset="0.29" stop-color="#57A6F2"/>
<stop offset="0.4" stop-color="#4EB3EE"/>
<stop offset="0.61" stop-color="#3FC6E7"/>
<stop offset="1" stop-color="#13F0D6"/>
</linearGradient>
<linearGradient id="paint3_linear_736_20" x1="2786.19" y1="6722.83" x2="1718.13" y2="6343.35" gradientUnits="userSpaceOnUse">
<stop stop-color="#00A0FF"/>
<stop offset="0.39" stop-color="#844DB3"/>
<stop offset="0.45" stop-color="#973FA7"/>
<stop offset="0.57" stop-color="#CA1C88"/>
<stop offset="0.58" stop-color="#CF1885"/>
<stop offset="1" stop-color="#E90074"/>
</linearGradient>
<linearGradient id="paint4_linear_736_20" x1="29.064" y1="31.195" x2="34.1394" y2="22.4552" gradientUnits="userSpaceOnUse">
<stop stop-color="white"/>
<stop offset="1" stop-color="#FFDEEE" stop-opacity="0.21"/>
</linearGradient>
<linearGradient id="paint5_linear_736_20" x1="2725.41" y1="2145.31" x2="2877.94" y2="1973.68" gradientUnits="userSpaceOnUse">
<stop stop-color="white"/>
<stop offset="1" stop-color="#FFDEEE" stop-opacity="0.21"/>
</linearGradient>
<linearGradient id="paint6_linear_736_20" x1="20.7726" y1="21.144" x2="27.283" y2="9.93601" gradientUnits="userSpaceOnUse">
<stop stop-color="white"/>
<stop offset="1" stop-color="#FFDEEE" stop-opacity="0.21"/>
</linearGradient>
<clipPath id="clip0_736_20">
<rect width="48" height="51.7895" fill="white"/>
</clipPath>
</defs>
</svg>
